{
    "asset" : {
        "generator" : "Khronos glTF Blender I/O v1.4.40",
        "version" : "2.0"
    },
    "scene" : 0,
    "scenes" : [
        {
            "name" : "Scene",
            "nodes" : [
                4,
                6
            ]
        }
    ],
    "nodes" : [
        {
            "mesh" : 0,
            "name" : "1x1_Arch",
            "translation" : [
                0.5,
                -1.25,
                0.5
            ]
        },
        {
            "mesh" : 1,
            "name" : "1x1_Cylinder",
            "translation" : [
                0.5,
                -1.25,
                0.5
            ]
        },
        {
            "mesh" : 2,
            "name" : "1x1_HalfArch",
            "translation" : [
                0.5,
                -1.25,
                0.5
            ]
        },
        {
            "mesh" : 3,
            "name" : "1x1_Slope",
            "translation" : [
                0.5,
                -1.25,
                0.5
            ]
        },
        {
            "children" : [
                0,
                1,
                2,
                3
            ],
            "name" : "1x1",
            "translation" : [
                -0.5,
                1.25,
                -0.5
            ]
        },
        {
            "mesh" : 4,
            "name" : "1x2_Arch",
            "translation" : [
                0.5,
                -1.25,
                0.5
            ]
        },
        {
            "children" : [
                5
            ],
            "name" : "1x2",
            "translation" : [
                -0.5,
                1.25,
                -0.5
            ]
        }
    ],
    "materials" : [
        {
            "doubleSided" : true,
            "name" : "Material",
            "pbrMetallicRoughness" : {
                "baseColorFactor" : [
                    0.800000011920929,
                    0.800000011920929,
                    0.800000011920929,
                    1
                ],
                "metallicFactor" : 0,
                "roughnessFactor" : 0.4000000059604645
            }
        }
    ],
    "meshes" : [
        {
            "name" : "Cube",
            "primitives" : [
                {
                    "attributes" : {
                        "POSITION" : 0,
                        "NORMAL" : 1,
                        "TEXCOORD_0" : 2
                    },
                    "indices" : 3,
                    "material" : 0
                }
            ]
        },
        {
            "name" : "Cube.004",
            "primitives" : [
                {
                    "attributes" : {
                        "POSITION" : 4,
                        "NORMAL" : 5,
                        "TEXCOORD_0" : 6
                    },
                    "indices" : 7,
                    "material" : 0
                }
            ]
        },
        {
            "name" : "Cube.002",
            "primitives" : [
                {
                    "attributes" : {
                        "POSITION" : 8,
                        "NORMAL" : 9,
                        "TEXCOORD_0" : 10
                    },
                    "indices" : 11,
                    "material" : 0
                }
            ]
        },
        {
            "name" : "Cube.001",
            "primitives" : [
                {
                    "attributes" : {
                        "POSITION" : 12,
                        "NORMAL" : 13,
                        "TEXCOORD_0" : 14
                    },
                    "indices" : 15,
                    "material" : 0
                }
            ]
        },
        {
            "name" : "Cube.003",
            "primitives" : [
                {
                    "attributes" : {
                        "POSITION" : 16,
                        "NORMAL" : 17,
                        "TEXCOORD_0" : 18
                    },
                    "indices" : 3,
                    "material" : 0
                }
            ]
        }
    ],
    "accessors" : [
        {
            "bufferView" : 0,
            "componentType" : 5126,
            "count" : 126,
            "max" : [
                0.5,
                1.25,
                0.5
            ],
            "min" : [
                -0.5,
                0,
                -0.5
            ],
            "type" : "VEC3"
        },
        {
            "bufferView" : 1,
            "componentType" : 5126,
            "count" : 126,
            "type" : "VEC3"
        },
        {
            "bufferView" : 2,
            "componentType" : 5126,
            "count" : 126,
            "type" : "VEC2"
        },
        {
            "bufferView" : 3,
            "componentType" : 5123,
            "count" : 264,
            "type" : "SCALAR"
        },
        {
            "bufferView" : 4,
            "componentType" : 5126,
            "count" : 46,
            "max" : [
                0.5,
                1.25,
                0.5
            ],
            "min" : [
                -0.5000002980232239,
                0,
                -0.5000000596046448
            ],
            "type" : "VEC3"
        },
        {
            "bufferView" : 5,
            "componentType" : 5126,
            "count" : 46,
            "type" : "VEC3"
        },
        {
            "bufferView" : 6,
            "componentType" : 5126,
            "count" : 46,
            "type" : "VEC2"
        },
        {
            "bufferView" : 7,
            "componentType" : 5123,
            "count" : 108,
            "type" : "SCALAR"
        },
        {
            "bufferView" : 8,
            "componentType" : 5126,
            "count" : 72,
            "max" : [
                0.5,
                1.25,
                0.5
            ],
            "min" : [
                -0.5,
                0,
                -0.5
            ],
            "type" : "VEC3"
        },
        {
            "bufferView" : 9,
            "componentType" : 5126,
            "count" : 72,
            "type" : "VEC3"
        },
        {
            "bufferView" : 10,
            "componentType" : 5126,
            "count" : 72,
            "type" : "VEC2"
        },
        {
            "bufferView" : 11,
            "componentType" : 5123,
            "count" : 144,
            "type" : "SCALAR"
        },
        {
            "bufferView" : 12,
            "componentType" : 5126,
            "count" : 18,
            "max" : [
                0.5,
                1.25,
                0.5
            ],
            "min" : [
                -0.5,
                0,
                -0.5
            ],
            "type" : "VEC3"
        },
        {
            "bufferView" : 13,
            "componentType" : 5126,
            "count" : 18,
            "type" : "VEC3"
        },
        {
            "bufferView" : 14,
            "componentType" : 5126,
            "count" : 18,
            "type" : "VEC2"
        },
        {
            "bufferView" : 15,
            "componentType" : 5123,
            "count" : 24,
            "type" : "SCALAR"
        },
        {
            "bufferView" : 16,
            "componentType" : 5126,
            "count" : 126,
            "max" : [
                1.5,
                1.25,
                0.5
            ],
            "min" : [
                -0.5,
                0,
                -0.5
            ],
            "type" : "VEC3"
        },
        {
            "bufferView" : 17,
            "componentType" : 5126,
            "count" : 126,
            "type" : "VEC3"
        },
        {
            "bufferView" : 18,
            "componentType" : 5126,
            "count" : 126,
            "type" : "VEC2"
        }
    ],
    "bufferViews" : [
        {
            "buffer" : 0,
            "byteLength" : 1512,
            "byteOffset" : 0
        },
        {
            "buffer" : 0,
            "byteLength" : 1512,
            "byteOffset" : 1512
        },
        {
            "buffer" : 0,
            "byteLength" : 1008,
            "byteOffset" : 3024
        },
        {
            "buffer" : 0,
            "byteLength" : 528,
            "byteOffset" : 4032
        },
        {
            "buffer" : 0,
            "byteLength" : 552,
            "byteOffset" : 4560
        },
        {
            "buffer" : 0,
            "byteLength" : 552,
            "byteOffset" : 5112
        },
        {
            "buffer" : 0,
            "byteLength" : 368,
            "byteOffset" : 5664
        },
        {
            "buffer" : 0,
            "byteLength" : 216,
            "byteOffset" : 6032
        },
        {
            "buffer" : 0,
            "byteLength" : 864,
            "byteOffset" : 6248
        },
        {
            "buffer" : 0,
            "byteLength" : 864,
            "byteOffset" : 7112
        },
        {
            "buffer" : 0,
            "byteLength" : 576,
            "byteOffset" : 7976
        },
        {
            "buffer" : 0,
            "byteLength" : 288,
            "byteOffset" : 8552
        },
        {
            "buffer" : 0,
            "byteLength" : 216,
            "byteOffset" : 8840
        },
        {
            "buffer" : 0,
            "byteLength" : 216,
            "byteOffset" : 9056
        },
        {
            "buffer" : 0,
            "byteLength" : 144,
            "byteOffset" : 9272
        },
        {
            "buffer" : 0,
            "byteLength" : 48,
            "byteOffset" : 9416
        },
        {
            "buffer" : 0,
            "byteLength" : 1512,
            "byteOffset" : 9464
        },
        {
            "buffer" : 0,
            "byteLength" : 1512,
            "byteOffset" : 10976
        },
        {
            "buffer" : 0,
            "byteLength" : 1008,
            "byteOffset" : 12488
        }
    ],
    "buffers" : [
        {
            "byteLength" : 13496,
            "uri" : "data:application/octet-stream;base64,"
        }
    ]
}
